<?xml version="1.0" encoding="utf-8"?>
<!-- Generator: Adobe Illustrator 22.1.0, SVG Export Plug-In . SVG Version: 6.00 Build 0)  -->
<svg version="1.1" id="Layer_1" xmlns="http://www.w3.org/2000/svg" xmlns:xlink="http://www.w3.org/1999/xlink" x="0px" y="0px"
	 viewBox="0 0 512 512" style="enable-background:new 0 0 512 512;" xml:space="preserve">
<style type="text/css">
	.st0{fill:#FFFFFF;}
</style>
<g>
	<path class="st0" d="M409.4,511.4V317.2c0,0-5.8-51.9-56-51.9c-50.2,0-59.4,49.4-59.4,49.4v196.7H190.5l1.7-320.7h100.1l-0.8,40.3
		c0,0,20.9-52.7,99.5-52.7c78.6,0,114.3,45.2,120.9,129.7c0,84.5,0,203.4,0,203.4H409.4z M63.5,145.1c-35.6,0-64.4-25.4-64.4-56.9
		S28,31.3,63.5,31.3S128,56.8,128,88.2S99.1,145.1,63.5,145.1z M127.4,511.7H0.2V191.5l127.3-0.8V511.7z"/>
</g>
</svg>
